<?xml version="1.0" standalone="no"?>
<!DOCTYPE svg PUBLIC "-//W3C//DTD SVG 20010904//EN"
 "http://www.w3.org/TR/2001/REC-SVG-20010904/DTD/svg10.dtd">
<svg version="1.0" xmlns="http://www.w3.org/2000/svg"
 width="1080.000000pt" height="1080.000000pt" viewBox="0 0 1080.000000 1080.000000"
 preserveAspectRatio="xMidYMid meet">

<g transform="translate(0.000000,1080.000000) scale(0.100000,-0.100000)"
fill="#000000" stroke="none">
<path d="M1340 9140 c-67 -8 -109 -29 -144 -71 -40 -48 -57 -86 -63 -144 -10
-94 52 -195 147 -239 44 -21 58 -21 722 -24 l678 -3 9 -37 c27 -104 891 -4007
891 -4026 0 -7 -30 -31 -67 -52 -89 -52 -218 -181 -272 -271 -69 -117 -93
-198 -99 -339 -4 -101 -1 -134 17 -204 68 -271 269 -477 536 -551 62 -17 120
-22 315 -28 132 -4 242 -10 246 -13 3 -4 -14 -12 -37 -18 -148 -37 -261 -103
-366 -214 -84 -87 -142 -181 -180 -291 -25 -73 -27 -93 -27 -220 0 -127 2
-147 27 -220 114 -327 428 -546 749 -522 399 31 698 349 698 741 0 122 -18
203 -69 310 -91 194 -253 337 -455 401 l-70 23 45 7 c58 11 3101 11 3158 0
l45 -7 -82 -28 c-108 -36 -180 -80 -269 -164 -87 -81 -151 -174 -192 -277
-116 -290 -25 -639 218 -833 90 -72 139 -99 251 -137 87 -30 106 -33 220 -33
104 -1 138 3 200 23 215 66 376 206 471 407 51 107 69 188 69 309 0 126 -19
206 -75 320 -104 213 -288 358 -519 410 -60 13 -8 20 197 25 234 7 263 14 325
73 45 43 73 99 79 161 4 44 1 60 -28 115 -22 41 -49 74 -75 93 -37 27 -54 31
-145 39 -57 4 -975 9 -2039 9 -1951 2 -2553 8 -2601 28 -81 33 -149 137 -149
227 1 90 57 186 129 218 43 19 74 20 601 28 305 4 987 8 1515 9 1342 2 2592
16 2635 29 20 6 54 30 77 53 38 39 46 58 96 223 186 606 759 2599 932 3240 64
235 65 257 16 333 -37 58 -81 92 -135 105 -27 7 -1108 12 -3120 16 l-3079 6
-63 285 c-102 465 -133 573 -181 631 -37 44 -71 57 -170 69 -99 11 -1455 12
-1543 0z m7417 -1488 c186 -4 316 -11 321 -17 6 -6 -145 -552 -413 -1492 -233
-815 -426 -1487 -430 -1492 -4 -8 -635 -11 -2080 -11 -1966 0 -2074 1 -2079
18 -6 19 -666 2990 -666 2997 0 7 4985 4 5347 -3z m-4272 -5031 c47 -21 110
-88 132 -140 20 -46 20 -126 0 -173 -24 -56 -91 -123 -149 -148 -207 -89 -422
164 -302 356 73 118 195 158 319 105z m3540 0 c47 -21 110 -88 132 -140 20
-46 20 -126 0 -173 -24 -56 -91 -123 -149 -148 -121 -52 -260 13 -321 149 -28
63 -20 144 19 207 73 118 195 158 319 105z"/>
</g>
</svg>
